<?xml version="1.0" standalone="no"?><!DOCTYPE svg PUBLIC "-//W3C//DTD SVG 1.1//EN" "http://www.w3.org/Graphics/SVG/1.1/DTD/svg11.dtd"><svg t="1615086564461" class="icon" viewBox="0 0 1024 1024" version="1.1" xmlns="http://www.w3.org/2000/svg" p-id="1412" xmlns:xlink="http://www.w3.org/1999/xlink" width="200" height="200"><defs><style type="text/css"></style></defs><path d="M508.5 131.1c224.7 0 407.5 182.8 407.5 407.5S733.2 946.1 508.5 946.1 101 763.3 101 538.6s182.8-407.5 407.5-407.5m0-77.7c-267.9 0-485.1 217.2-485.1 485.1 0 267.9 217.2 485.1 485.1 485.1 267.9 0 485.1-217.2 485.1-485.1 0-267.9-217.2-485.1-485.1-485.1z" fill="#ED4CA5" p-id="1413"></path><path d="M916 275.6v-179l-91.9 73.3c-20.1-17.3-41.6-32.9-64.4-46.8L897.7 13c8.9-7 19.1-11.2 30.1-12.5 10.6-1.2 21.7 0.5 31.9 5.5 10.1 4.8 18.5 12.4 24.1 21.6 5.8 9.3 9 20.1 9 31.3v477.2c-0.3-96-28.4-185.3-76.8-260.5zM23.4 536.1V59c0-11.2 3.2-21.8 9-31.3 5.8-9.2 14-16.6 24.1-21.6C66.7 1.1 77.8-0.6 88.4 0.6c10.8 1.2 21.2 5.4 30 12.5l138 110c-22.8 13.9-44.3 29.5-64.4 46.8l-91.9-73.3v179c-48.3 75.2-76.5 164.5-76.7 260.5z m0 0" fill="#ED4CA5" p-id="1414"></path><path d="M700.4 423.2c0-22 17.9-39.9 39.9-39.9 22.1 0 39.9 17.9 39.9 39.9v77.3c0 22-17.9 39.9-39.9 39.9s-39.9-17.9-39.9-39.9v-77.3zM468.6 670.9c0-22 17.9-39.9 39.9-39.9s39.9 17.9 39.9 39.9c0 10.5 4.2 20 10.9 26.7l0.1 0.1c6.7 6.7 16.1 10.9 26.7 10.9 10.4 0 19.9-4.2 26.7-11.1 6.9-6.9 11.1-16.2 11.1-26.7 0-22 17.9-39.9 39.9-39.9s39.9 17.9 39.9 39.9c0 32.5-13.2 61.9-34.4 83.2-21.3 21.3-50.7 34.4-83.2 34.4-32.2 0-61.6-13.2-82.9-34.3l-0.3-0.3c-21.1-21.3-34.3-50.7-34.3-82.9z m0 0" fill="#FFD500" p-id="1415"></path><path d="M468.6 670.9c0-22 17.9-39.9 39.9-39.9s39.9 17.9 39.9 39.9c0 32.3-13.2 61.6-34.4 83l-0.3 0.3c-21.3 21.3-50.7 34.3-82.9 34.3-32.5 0-61.9-13.2-83.2-34.4-21.3-21.3-34.4-50.7-34.4-83.2 0-22 17.9-39.9 39.9-39.9 22.1 0 39.9 17.9 39.9 39.9 0 10.4 4.2 19.9 11.1 26.7 6.9 6.9 16.2 11.1 26.7 11.1s20-4.2 26.7-10.9l0.1-0.1c6.8-6.9 11-16.3 11-26.8zM236.7 423.2c0-22 17.9-39.9 39.9-39.9 22.1 0 39.9 17.9 39.9 39.9v77.3c0 22-17.9 39.9-39.9 39.9s-39.9-17.9-39.9-39.9v-77.3z m0 0" fill="#FFD500" p-id="1416"></path></svg>